<svg width="500" height="400" viewBox="0 0 500 400" fill="none" xmlns="http://www.w3.org/2000/svg">
  <defs>
    <linearGradient id="skyGradient" x1="0%" y1="0%" x2="0%" y2="100%">
      <stop offset="0%" style="stop-color:#e8f5e8;stop-opacity:1" />
      <stop offset="100%" style="stop-color:#f0f8f0;stop-opacity:1" />
    </linearGradient>
    <linearGradient id="bambooGradient1" x1="0%" y1="0%" x2="100%" y2="100%">
      <stop offset="0%" style="stop-color:#4a7c59;stop-opacity:1" />
      <stop offset="100%" style="stop-color:#2d5016;stop-opacity:1" />
    </linearGradient>
    <linearGradient id="bambooGradient2" x1="0%" y1="0%" x2="100%" y2="100%">
      <stop offset="0%" style="stop-color:#5a8c69;stop-opacity:1" />
      <stop offset="100%" style="stop-color:#3d6026;stop-opacity:1" />
    </linearGradient>
    <radialGradient id="sunGradient" cx="50%" cy="50%" r="50%">
      <stop offset="0%" style="stop-color:#fff9c4;stop-opacity:0.8" />
      <stop offset="100%" style="stop-color:#f0e68c;stop-opacity:0.3" />
    </radialGradient>
  </defs>
  
  <!-- Background -->
  <rect width="500" height="400" fill="url(#skyGradient)"/>
  
  <!-- Sun rays -->
  <circle cx="400" cy="80" r="60" fill="url(#sunGradient)"/>
  
  <!-- Ground -->
  <path d="M0 350 Q250 330 500 350 L500 400 L0 400 Z" fill="#3d5c2a" opacity="0.3"/>
  
  <!-- Bambu belakang (jauh) -->
  <rect x="50" y="100" width="8" height="250" fill="url(#bambooGradient2)" rx="4" opacity="0.7"/>
  <rect x="80" y="80" width="8" height="270" fill="url(#bambooGradient2)" rx="4" opacity="0.7"/>
  <rect x="120" y="90" width="8" height="260" fill="url(#bambooGradient2)" rx="4" opacity="0.7"/>
  <rect x="160" y="70" width="8" height="280" fill="url(#bambooGradient2)" rx="4" opacity="0.7"/>
  <rect x="200" y="85" width="8" height="265" fill="url(#bambooGradient2)" rx="4" opacity="0.7"/>
  <rect x="240" y="75" width="8" height="275" fill="url(#bambooGradient2)" rx="4" opacity="0.7"/>
  <rect x="280" y="95" width="8" height="255" fill="url(#bambooGradient2)" rx="4" opacity="0.7"/>
  <rect x="320" y="80" width="8" height="270" fill="url(#bambooGradient2)" rx="4" opacity="0.7"/>
  <rect x="360" y="90" width="8" height="260" fill="url(#bambooGradient2)" rx="4" opacity="0.7"/>
  <rect x="400" y="85" width="8" height="265" fill="url(#bambooGradient2)" rx="4" opacity="0.7"/>
  <rect x="440" y="100" width="8" height="250" fill="url(#bambooGradient2)" rx="4" opacity="0.7"/>
  
  <!-- Bambu tengah -->
  <rect x="70" y="50" width="12" height="300" fill="url(#bambooGradient1)" rx="6"/>
  <rect x="110" y="40" width="12" height="310" fill="url(#bambooGradient1)" rx="6"/>
  <rect x="150" y="30" width="12" height="320" fill="url(#bambooGradient1)" rx="6"/>
  <rect x="190" y="45" width="12" height="305" fill="url(#bambooGradient1)" rx="6"/>
  <rect x="230" y="35" width="12" height="315" fill="url(#bambooGradient1)" rx="6"/>
  <rect x="270" y="50" width="12" height="300" fill="url(#bambooGradient1)" rx="6"/>
  <rect x="310" y="40" width="12" height="310" fill="url(#bambooGradient1)" rx="6"/>
  <rect x="350" y="45" width="12" height="305" fill="url(#bambooGradient1)" rx="6"/>
  <rect x="390" y="55" width="12" height="295" fill="url(#bambooGradient1)" rx="6"/>
  
  <!-- Ruas bambu tengah -->
  <g stroke="#2d5016" stroke-width="2" opacity="0.8">
    <line x1="70" y1="100" x2="82" y2="100"/>
    <line x1="70" y1="150" x2="82" y2="150"/>
    <line x1="70" y1="200" x2="82" y2="200"/>
    <line x1="70" y1="250" x2="82" y2="250"/>
    <line x1="70" y1="300" x2="82" y2="300"/>
    
    <line x1="110" y1="90" x2="122" y2="90"/>
    <line x1="110" y1="140" x2="122" y2="140"/>
    <line x1="110" y1="190" x2="122" y2="190"/>
    <line x1="110" y1="240" x2="122" y2="240"/>
    <line x1="110" y1="290" x2="122" y2="290"/>
    
    <line x1="150" y1="80" x2="162" y2="80"/>
    <line x1="150" y1="130" x2="162" y2="130"/>
    <line x1="150" y1="180" x2="162" y2="180"/>
    <line x1="150" y1="230" x2="162" y2="230"/>
    <line x1="150" y1="280" x2="162" y2="280"/>
    
    <line x1="190" y1="95" x2="202" y2="95"/>
    <line x1="190" y1="145" x2="202" y2="145"/>
    <line x1="190" y1="195" x2="202" y2="195"/>
    <line x1="190" y1="245" x2="202" y2="245"/>
    <line x1="190" y1="295" x2="202" y2="295"/>
  </g>
  
  <!-- Bambu depan (besar) -->
  <rect x="30" y="20" width="16" height="330" fill="url(#bambooGradient1)" rx="8"/>
  <rect x="420" y="25" width="16" height="325" fill="url(#bambooGradient1)" rx="8"/>
  
  <!-- Ruas bambu depan -->
  <g stroke="#1a3009" stroke-width="3">
    <line x1="30" y1="70" x2="46" y2="70"/>
    <line x1="30" y1="120" x2="46" y2="120"/>
    <line x1="30" y1="170" x2="46" y2="170"/>
    <line x1="30" y1="220" x2="46" y2="220"/>
    <line x1="30" y1="270" x2="46" y2="270"/>
    <line x1="30" y1="320" x2="46" y2="320"/>
    
    <line x1="420" y1="75" x2="436" y2="75"/>
    <line x1="420" y1="125" x2="436" y2="125"/>
    <line x1="420" y1="175" x2="436" y2="175"/>
    <line x1="420" y1="225" x2="436" y2="225"/>
    <line x1="420" y1="275" x2="436" y2="275"/>
    <line x1="420" y1="325" x2="436" y2="325"/>
  </g>
  
  <!-- Daun bambu -->
  <g fill="#4a7c59" opacity="0.8">
    <!-- Daun kiri -->
    <path d="M46 50 Q55 45 65 50 Q60 60 50 65 Q45 55 46 50"/>
    <path d="M82 70 Q91 65 101 70 Q96 80 86 85 Q81 75 82 70"/>
    <path d="M122 60 Q131 55 141 60 Q136 70 126 75 Q121 65 122 60"/>
    
    <!-- Daun kanan -->
    <path d="M420 45 Q410 40 400 45 Q405 55 415 60 Q425 50 420 45"/>
    <path d="M390 65 Q380 60 370 65 Q375 75 385 80 Q395 70 390 65"/>
    <path d="M360 55 Q350 50 340 55 Q345 65 355 70 Q365 60 360 55"/>
    
    <!-- Daun tengah -->
    <path d="M162 40 Q171 35 181 40 Q176 50 166 55 Q161 45 162 40"/>
    <path d="M202 55 Q211 50 221 55 Q216 65 206 70 Q201 60 202 55"/>
    <path d="M242 45 Q251 40 261 45 Q256 55 246 60 Q241 50 242 45"/>
    <path d="M282 60 Q291 55 301 60 Q296 70 286 75 Q281 65 282 60"/>
  </g>
  
  <!-- Jalur setapak -->
  <path d="M0 380 Q100 370 200 375 Q300 380 400 375 Q450 370 500 375 L500 400 L0 400 Z" fill="#8B4513" opacity="0.3"/>
  <path d="M50 385 Q150 380 250 385 Q350 390 450 385" stroke="#654321" stroke-width="2" fill="none" opacity="0.5"/>
  
  <!-- Efek cahaya matahari -->
  <g opacity="0.3">
    <path d="M350 120 L380 140 L350 160 L320 140 Z" fill="#fff9c4"/>
    <path d="M300 180 L330 200 L300 220 L270 200 Z" fill="#fff9c4"/>
    <path d="M200 160 L230 180 L200 200 L170 180 Z" fill="#fff9c4"/>
  </g>
</svg>