<svg width="300" height="250" viewBox="0 0 300 250" fill="none" xmlns="http://www.w3.org/2000/svg">
  <defs>
    <linearGradient id="bg3" x1="0%" y1="0%" x2="100%" y2="100%">
      <stop offset="0%" style="stop-color:#e8f5e8;stop-opacity:1" />
      <stop offset="100%" style="stop-color:#f8fff8;stop-opacity:1" />
    </linearGradient>
    <linearGradient id="bamboo3" x1="0%" y1="0%" x2="100%" y2="100%">
      <stop offset="0%" style="stop-color:#4a7c59;stop-opacity:1" />
      <stop offset="100%" style="stop-color:#2d5016;stop-opacity:1" />
    </linearGradient>
  </defs>
  
  <!-- Background -->
  <rect width="300" height="250" fill="url(#bg3)"/>
  
  <!-- Bambu close-up -->
  <rect x="50" y="0" width="20" height="250" fill="url(#bamboo3)" rx="10"/>
  <rect x="100" y="0" width="20" height="250" fill="url(#bamboo3)" rx="10"/>
  <rect x="150" y="0" width="20" height="250" fill="url(#bamboo3)" rx="10"/>
  <rect x="200" y="0" width="20" height="250" fill="url(#bamboo3)" rx="10"/>
  <rect x="250" y="0" width="20" height="250" fill="url(#bamboo3)" rx="10"/>
  
  <!-- Ruas bambu detail -->
  <g stroke="#1a3009" stroke-width="3" opacity="0.9">
    <line x1="50" y1="50" x2="70" y2="50"/>
    <line x1="50" y1="100" x2="70" y2="100"/>
    <line x1="50" y1="150" x2="70" y2="150"/>
    <line x1="50" y1="200" x2="70" y2="200"/>
    
    <line x1="100" y1="40" x2="120" y2="40"/>
    <line x1="100" y1="90" x2="120" y2="90"/>
    <line x1="100" y1="140" x2="120" y2="140"/>
    <line x1="100" y1="190" x2="120" y2="190"/>
    <line x1="100" y1="240" x2="120" y2="240"/>
    
    <line x1="150" y1="45" x2="170" y2="45"/>
    <line x1="150" y1="95" x2="170" y2="95"/>
    <line x1="150" y1="145" x2="170" y2="145"/>
    <line x1="150" y1="195" x2="170" y2="195"/>
    <line x1="150" y1="245" x2="170" y2="245"/>
    
    <line x1="200" y1="35" x2="220" y2="35"/>
    <line x1="200" y1="85" x2="220" y2="85"/>
    <line x1="200" y1="135" x2="220" y2="135"/>
    <line x1="200" y1="185" x2="220" y2="185"/>
    <line x1="200" y1="235" x2="220" y2="235"/>
  </g>
  
  <!-- Tekstur bambu -->
  <g stroke="#3d6026" stroke-width="1" opacity="0.4">
    <line x1="55" y1="0" x2="55" y2="250"/>
    <line x1="65" y1="0" x2="65" y2="250"/>
    <line x1="105" y1="0" x2="105" y2="250"/>
    <line x1="115" y1="0" x2="115" y2="250"/>
    <line x1="155" y1="0" x2="155" y2="250"/>
    <line x1="165" y1="0" x2="165" y2="250"/>
    <line x1="205" y1="0" x2="205" y2="250"/>
    <line x1="215" y1="0" x2="215" y2="250"/>
    <line x1="255" y1="0" x2="255" y2="250"/>
    <line x1="265" y1="0" x2="265" y2="250"/>
  </g>
  
  <!-- Daun yang jatuh -->
  <g fill="#4a7c59" opacity="0.6">
    <ellipse cx="30" cy="180" rx="8" ry="3" transform="rotate(45 30 180)"/>
    <ellipse cx="80" cy="220" rx="6" ry="2" transform="rotate(-30 80 220)"/>
    <ellipse cx="130" cy="200" rx="7" ry="3" transform="rotate(60 130 200)"/>
    <ellipse cx="180" cy="230" rx="5" ry="2" transform="rotate(-45 180 230)"/>
    <ellipse cx="230" cy="210" rx="6" ry="3" transform="rotate(30 230 210)"/>
    <ellipse cx="280" cy="190" rx="8" ry="3" transform="rotate(-60 280 190)"/>
  </g>
  
  <!-- Cahaya filtered -->
  <g opacity="0.3">
    <rect x="75" y="0" width="5" height="250" fill="#fff9c4"/>
    <rect x="125" y="0" width="5" height="250" fill="#fff9c4"/>
    <rect x="175" y="0" width="5" height="250" fill="#fff9c4"/>
    <rect x="225" y="0" width="5" height="250" fill="#fff9c4"/>
  </g>
</svg>