<svg width="300" height="250" viewBox="0 0 300 250" fill="none" xmlns="http://www.w3.org/2000/svg">
  <defs>
    <linearGradient id="bg6" x1="0%" y1="0%" x2="0%" y2="100%">
      <stop offset="0%" style="stop-color:#fff9c4;stop-opacity:0.3" />
      <stop offset="50%" style="stop-color:#f0f8f0;stop-opacity:1" />
      <stop offset="100%" style="stop-color:#e8f5e8;stop-opacity:1" />
    </linearGradient>
    <linearGradient id="bamboo6" x1="0%" y1="0%" x2="100%" y2="100%">
      <stop offset="0%" style="stop-color:#4a7c59;stop-opacity:1" />
      <stop offset="100%" style="stop-color:#2d5016;stop-opacity:1" />
    </linearGradient>
    <radialGradient id="sunset" cx="80%" cy="20%" r="40%">
      <stop offset="0%" style="stop-color:#fff9c4;stop-opacity:0.8" />
      <stop offset="100%" style="stop-color:#f0e68c;stop-opacity:0.3" />
    </radialGradient>
  </defs>
  
  <!-- Background -->
  <rect width="300" height="250" fill="url(#bg6)"/>
  
  <!-- Sunset light -->
  <ellipse cx="240" cy="50" rx="80" ry="60" fill="url(#sunset)"/>
  
  <!-- Bambu siluet sore -->
  <g>
    <rect x="10" y="80" width="8" height="140" fill="url(#bamboo6)" rx="4" opacity="0.9"/>
    <rect x="25" y="70" width="8" height="150" fill="url(#bamboo6)" rx="4" opacity="0.9"/>
    <rect x="40" y="75" width="8" height="145" fill="url(#bamboo6)" rx="4" opacity="0.9"/>
    <rect x="55" y="65" width="8" height="155" fill="url(#bamboo6)" rx="4" opacity="0.9"/>
    <rect x="70" y="70" width="8" height="150" fill="url(#bamboo6)" rx="4" opacity="0.9"/>
    <rect x="85" y="60" width="8" height="160" fill="url(#bamboo6)" rx="4" opacity="0.9"/>
    <rect x="100" y="75" width="8" height="145" fill="url(#bamboo6)" rx="4" opacity="0.9"/>
    <rect x="115" y="65" width="8" height="155" fill="url(#bamboo6)" rx="4" opacity="0.9"/>
    <rect x="130" y="70" width="8" height="150" fill="url(#bamboo6)" rx="4" opacity="0.9"/>
    <rect x="145" y="80" width="8" height="140" fill="url(#bamboo6)" rx="4" opacity="0.9"/>
    <rect x="160" y="75" width="8" height="145" fill="url(#bamboo6)" rx="4" opacity="0.9"/>
    <rect x="175" y="65" width="8" height="155" fill="url(#bamboo6)" rx="4" opacity="0.9"/>
    <rect x="190" y="70" width="8" height="150" fill="url(#bamboo6)" rx="4" opacity="0.9"/>
    <rect x="205" y="60" width="8" height="160" fill="url(#bamboo6)" rx="4" opacity="0.9"/>
    <rect x="220" y="75" width="8" height="145" fill="url(#bamboo6)" rx="4" opacity="0.9"/>
    <rect x="235" y="65" width="8" height="155" fill="url(#bamboo6)" rx="4" opacity="0.9"/>
    <rect x="250" y="70" width="8" height="150" fill="url(#bamboo6)" rx="4" opacity="0.9"/>
    <rect x="265" y="80" width="8" height="140" fill="url(#bamboo6)" rx="4" opacity="0.9"/>
    <rect x="280" y="85" width="8" height="135" fill="url(#bamboo6)" rx="4" opacity="0.9"/>
  </g>
  
  <!-- Ruas bambu -->
  <g stroke="#1a3009" stroke-width="1" opacity="0.7">
    <line x1="10" y1="110" x2="18" y2="110"/>
    <line x1="10" y1="150" x2="18" y2="150"/>
    <line x1="10" y1="190" x2="18" y2="190"/>
    
    <line x1="40" y1="105" x2="48" y2="105"/>
    <line x1="40" y1="145" x2="48" y2="145"/>
    <line x1="40" y1="185" x2="48" y2="185"/>
    
    <line x1="70" y1="100" x2="78" y2="100"/>
    <line x1="70" y1="140" x2="78" y2="140"/>
    <line x1="70" y1="180" x2="78" y2="180"/>
    
    <line x1="100" y1="105" x2="108" y2="105"/>
    <line x1="100" y1="145" x2="108" y2="145"/>
    <line x1="100" y1="185" x2="108" y2="185"/>
  </g>
  
  <!-- Daun dengan cahaya sore -->
  <g fill="#6fa86f" opacity="0.8">
    <path d="M18 90 Q23 85 28 90 Q23 100 18 105 Q13 95 18 90"/>
    <path d="M48 85 Q53 80 58 85 Q53 95 48 100 Q43 90 48 85"/>
    <path d="M78 80 Q83 75 88 80 Q83 90 78 95 Q73 85 78 80"/>
    <path d="M108 85 Q113 80 118 85 Q113 95 108 100 Q103 90 108 85"/>
    <path d="M138 90 Q143 85 148 90 Q143 100 138 105 Q133 95 138 90"/>
    <path d="M168 85 Q173 80 178 85 Q173 95 168 100 Q163 90 168 85"/>
    <path d="M198 80 Q203 75 208 80 Q203 90 198 95 Q193 85 198 80"/>
    <path d="M228 85 Q233 80 238 85 Q233 95 228 100 Q223 90 228 85"/>
    <path d="M258 90 Q263 85 268 90 Q263 100 258 105 Q253 95 258 90"/>
  </g>
  
  <!-- Cahaya sore yang menembus -->
  <g opacity="0.4">
    <rect x="20" y="0" width="3" height="250" fill="#fff9c4" transform="rotate(15 21.5 125)"/>
    <rect x="50" y="0" width="3" height="250" fill="#fff9c4" transform="rotate(15 51.5 125)"/>
    <rect x="80" y="0" width="3" height="250" fill="#fff9c4" transform="rotate(15 81.5 125)"/>
    <rect x="110" y="0" width="3" height="250" fill="#fff9c4" transform="rotate(15 111.5 125)"/>
    <rect x="140" y="0" width="3" height="250" fill="#fff9c4" transform="rotate(15 141.5 125)"/>
    <rect x="170" y="0" width="3" height="250" fill="#fff9c4" transform="rotate(15 171.5 125)"/>
    <rect x="200" y="0" width="3" height="250" fill="#fff9c4" transform="rotate(15 201.5 125)"/>
  </g>
  
  <!-- Ground dengan bayangan sore -->
  <path d="M0 210 Q75 200 150 205 Q225 200 300 210 L300 250 L0 250 Z" fill="#8B4513" opacity="0.5"/>
  
  <!-- Bayangan bambu -->
  <g fill="#2d5016" opacity="0.2">
    <ellipse cx="14" cy="230" rx="15" ry="3" transform="rotate(15 14 230)"/>
    <ellipse cx="29" cy="235" rx="18" ry="3" transform="rotate(15 29 235)"/>
    <ellipse cx="44" cy="232" rx="16" ry="3" transform="rotate(15 44 232)"/>
    <ellipse cx="59" cy="238" rx="20" ry="3" transform="rotate(15 59 238)"/>
    <ellipse cx="74" cy="235" rx="18" ry="3" transform="rotate(15 74 235)"/>
  </g>
</svg>