<svg width="300" height="250" viewBox="0 0 300 250" fill="none" xmlns="http://www.w3.org/2000/svg">
  <defs>
    <linearGradient id="bg2" x1="0%" y1="0%" x2="0%" y2="100%">
      <stop offset="0%" style="stop-color:#f0f8f0;stop-opacity:1" />
      <stop offset="100%" style="stop-color:#e0f0e0;stop-opacity:1" />
    </linearGradient>
    <linearGradient id="bamboo2" x1="0%" y1="0%" x2="100%" y2="100%">
      <stop offset="0%" style="stop-color:#5a8c69;stop-opacity:1" />
      <stop offset="100%" style="stop-color:#3d6026;stop-opacity:1" />
    </linearGradient>
    <radialGradient id="light2" cx="50%" cy="30%" r="60%">
      <stop offset="0%" style="stop-color:#fff9c4;stop-opacity:0.6" />
      <stop offset="100%" style="stop-color:#f0e68c;stop-opacity:0.2" />
    </radialGradient>
  </defs>
  
  <!-- Background -->
  <rect width="300" height="250" fill="url(#bg2)"/>
  
  <!-- Light effect -->
  <ellipse cx="150" cy="75" rx="120" ry="80" fill="url(#light2)"/>
  
  <!-- Bambu dengan perspektif -->
  <g transform="rotate(-5 150 125)">
    <rect x="40" y="30" width="12" height="190" fill="url(#bamboo2)" rx="6"/>
    <rect x="70" y="25" width="12" height="195" fill="url(#bamboo2)" rx="6"/>
    <rect x="100" y="35" width="12" height="185" fill="url(#bamboo2)" rx="6"/>
    <rect x="130" y="20" width="12" height="200" fill="url(#bamboo2)" rx="6"/>
    <rect x="160" y="30" width="12" height="190" fill="url(#bamboo2)" rx="6"/>
    <rect x="190" y="25" width="12" height="195" fill="url(#bamboo2)" rx="6"/>
    <rect x="220" y="35" width="12" height="185" fill="url(#bamboo2)" rx="6"/>
    <rect x="250" y="40" width="12" height="180" fill="url(#bamboo2)" rx="6"/>
  </g>
  
  <!-- Ruas bambu -->
  <g stroke="#2d5016" stroke-width="2" opacity="0.7" transform="rotate(-5 150 125)">
    <line x1="40" y1="70" x2="52" y2="70"/>
    <line x1="40" y1="110" x2="52" y2="110"/>
    <line x1="40" y1="150" x2="52" y2="150"/>
    <line x1="40" y1="190" x2="52" y2="190"/>
    
    <line x1="100" y1="75" x2="112" y2="75"/>
    <line x1="100" y1="115" x2="112" y2="115"/>
    <line x1="100" y1="155" x2="112" y2="155"/>
    <line x1="100" y1="195" x2="112" y2="195"/>
    
    <line x1="160" y1="70" x2="172" y2="70"/>
    <line x1="160" y1="110" x2="172" y2="110"/>
    <line x1="160" y1="150" x2="172" y2="150"/>
    <line x1="160" y1="190" x2="172" y2="190"/>
    
    <line x1="220" y1="75" x2="232" y2="75"/>
    <line x1="220" y1="115" x2="232" y2="115"/>
    <line x1="220" y1="155" x2="232" y2="155"/>
    <line x1="220" y1="195" x2="232" y2="195"/>
  </g>
  
  <!-- Daun bambu besar -->
  <g fill="#4a7c59" opacity="0.8">
    <path d="M52 40 Q62 30 72 40 Q67 55 57 65 Q47 50 52 40"/>
    <path d="M112 35 Q122 25 132 35 Q127 50 117 60 Q107 45 112 35"/>
    <path d="M172 40 Q182 30 192 40 Q187 55 177 65 Q167 50 172 40"/>
    <path d="M232 45 Q242 35 252 45 Q247 60 237 70 Q227 55 232 45"/>
    
    <!-- Daun kecil -->
    <path d="M80 60 Q85 55 90 60 Q85 70 80 75 Q75 65 80 60"/>
    <path d="M140 55 Q145 50 150 55 Q145 65 140 70 Q135 60 140 55"/>
    <path d="M200 65 Q205 60 210 65 Q205 75 200 80 Q195 70 200 65"/>
  </g>
  
  <!-- Efek angin pada daun -->
  <g fill="#6fa86f" opacity="0.5">
    <path d="M60 50 Q65 45 70 50 Q65 60 60 65 Q55 55 60 50"/>
    <path d="M120 45 Q125 40 130 45 Q125 55 120 60 Q115 50 120 45"/>
    <path d="M180 50 Q185 45 190 50 Q185 60 180 65 Q175 55 180 50"/>
  </g>
  
  <!-- Ground -->
  <path d="M0 220 Q75 210 150 215 Q225 210 300 220 L300 250 L0 250 Z" fill="#8B4513" opacity="0.4"/>
</svg>