<svg width="300" height="250" viewBox="0 0 300 250" fill="none" xmlns="http://www.w3.org/2000/svg">
  <defs>
    <linearGradient id="bg4" x1="0%" y1="0%" x2="0%" y2="100%">
      <stop offset="0%" style="stop-color:#f0f8f0;stop-opacity:1" />
      <stop offset="100%" style="stop-color:#e8f5e8;stop-opacity:1" />
    </linearGradient>
    <linearGradient id="bamboo4" x1="0%" y1="0%" x2="100%" y2="100%">
      <stop offset="0%" style="stop-color:#5a8c69;stop-opacity:1" />
      <stop offset="100%" style="stop-color:#3d6026;stop-opacity:1" />
    </linearGradient>
  </defs>
  
  <!-- Background -->
  <rect width="300" height="250" fill="url(#bg4)"/>
  
  <!-- Bambu dari bawah ke atas -->
  <g>
    <rect x="30" y="50" width="15" height="180" fill="url(#bamboo4)" rx="7" transform="rotate(10 37.5 140)"/>
    <rect x="60" y="40" width="15" height="190" fill="url(#bamboo4)" rx="7" transform="rotate(-5 67.5 135)"/>
    <rect x="90" y="45" width="15" height="185" fill="url(#bamboo4)" rx="7" transform="rotate(8 97.5 137.5)"/>
    <rect x="120" y="35" width="15" height="195" fill="url(#bamboo4)" rx="7" transform="rotate(-3 127.5 132.5)"/>
    <rect x="150" y="40" width="15" height="190" fill="url(#bamboo4)" rx="7" transform="rotate(6 157.5 135)"/>
    <rect x="180" y="45" width="15" height="185" fill="url(#bamboo4)" rx="7" transform="rotate(-8 187.5 137.5)"/>
    <rect x="210" y="50" width="15" height="180" fill="url(#bamboo4)" rx="7" transform="rotate(4 217.5 140)"/>
    <rect x="240" y="40" width="15" height="190" fill="url(#bamboo4)" rx="7" transform="rotate(-6 247.5 135)"/>
    <rect x="270" y="55" width="15" height="175" fill="url(#bamboo4)" rx="7" transform="rotate(7 277.5 142.5)"/>
  </g>
  
  <!-- Ruas bambu -->
  <g stroke="#2d5016" stroke-width="2" opacity="0.8">
    <line x1="30" y1="90" x2="45" y2="90" transform="rotate(10 37.5 140)"/>
    <line x1="30" y1="130" x2="45" y2="130" transform="rotate(10 37.5 140)"/>
    <line x1="30" y1="170" x2="45" y2="170" transform="rotate(10 37.5 140)"/>
    <line x1="30" y1="210" x2="45" y2="210" transform="rotate(10 37.5 140)"/>
    
    <line x1="90" y1="85" x2="105" y2="85" transform="rotate(8 97.5 137.5)"/>
    <line x1="90" y1="125" x2="105" y2="125" transform="rotate(8 97.5 137.5)"/>
    <line x1="90" y1="165" x2="105" y2="165" transform="rotate(8 97.5 137.5)"/>
    <line x1="90" y1="205" x2="105" y2="205" transform="rotate(8 97.5 137.5)"/>
    
    <line x1="150" y1="80" x2="165" y2="80" transform="rotate(6 157.5 135)"/>
    <line x1="150" y1="120" x2="165" y2="120" transform="rotate(6 157.5 135)"/>
    <line x1="150" y1="160" x2="165" y2="160" transform="rotate(6 157.5 135)"/>
    <line x1="150" y1="200" x2="165" y2="200" transform="rotate(6 157.5 135)"/>
  </g>
  
  <!-- Daun bambu natural -->
  <g fill="#4a7c59" opacity="0.7">
    <path d="M45 60 Q55 50 65 60 Q60 75 50 85 Q40 70 45 60" transform="rotate(10 55 67.5)"/>
    <path d="M105 55 Q115 45 125 55 Q120 70 110 80 Q100 65 105 55" transform="rotate(8 115 62.5)"/>
    <path d="M165 60 Q175 50 185 60 Q180 75 170 85 Q160 70 165 60" transform="rotate(6 175 67.5)"/>
    <path d="M225 65 Q235 55 245 65 Q240 80 230 90 Q220 75 225 65" transform="rotate(4 235 72.5)"/>
    
    <!-- Daun kecil -->
    <path d="M70 80 Q75 75 80 80 Q75 90 70 95 Q65 85 70 80"/>
    <path d="M130 75 Q135 70 140 75 Q135 85 130 90 Q125 80 130 75"/>
    <path d="M190 85 Q195 80 200 85 Q195 95 190 100 Q185 90 190 85"/>
    <path d="M250 90 Q255 85 260 90 Q255 100 250 105 Q245 95 250 90"/>
  </g>
  
  <!-- Ground dengan rumput -->
  <path d="M0 220 Q50 210 100 215 Q150 210 200 215 Q250 210 300 220 L300 250 L0 250 Z" fill="#8B4513" opacity="0.4"/>
  
  <!-- Rumput -->
  <g stroke="#4a7c59" stroke-width="2" opacity="0.6">
    <path d="M20 230 Q22 225 24 230"/>
    <path d="M25 228 Q27 223 29 228"/>
    <path d="M50 232 Q52 227 54 232"/>
    <path d="M80 229 Q82 224 84 229"/>
    <path d="M110 233 Q112 228 114 233"/>
    <path d="M140 230 Q142 225 144 230"/>
    <path d="M170 232 Q172 227 174 232"/>
    <path d="M200 229 Q202 224 204 229"/>
    <path d="M230 233 Q232 228 234 233"/>
    <path d="M260 230 Q262 225 264 230"/>
    <path d="M280 232 Q282 227 284 232"/>
  </g>
</svg>