<svg width="40" height="40" viewBox="0 0 40 40" fill="none" xmlns="http://www.w3.org/2000/svg">
  <defs>
    <linearGradient id="roofGradient" x1="0%" y1="0%" x2="0%" y2="100%">
      <stop offset="0%" style="stop-color:#8B4513;stop-opacity:1" />
      <stop offset="100%" style="stop-color:#654321;stop-opacity:1" />
    </linearGradient>
    <linearGradient id="pillarGradient" x1="0%" y1="0%" x2="100%" y2="100%">
      <stop offset="0%" style="stop-color:#DEB887;stop-opacity:1" />
      <stop offset="100%" style="stop-color:#D2B48C;stop-opacity:1" />
    </linearGradient>
  </defs>
  
  <!-- Roof -->
  <path d="M20 8 L32 18 L8 18 Z" fill="url(#roofGradient)"/>
  
  <!-- Roof details -->
  <path d="M20 8 L30 16 L10 16 Z" fill="#A0522D"/>
  
  <!-- Pillars -->
  <rect x="10" y="18" width="2" height="15" fill="url(#pillarGradient)"/>
  <rect x="28" y="18" width="2" height="15" fill="url(#pillarGradient)"/>
  <rect x="19" y="18" width="2" height="15" fill="url(#pillarGradient)"/>
  
  <!-- Floor -->
  <ellipse cx="20" cy="33" rx="12" ry="4" fill="#F5DEB3"/>
  
  <!-- Bench -->
  <rect x="14" y="28" width="12" height="3" fill="#DEB887" rx="1"/>
  <rect x="15" y="31" width="2" height="3" fill="#D2B48C"/>
  <rect x="23" y="31" width="2" height="3" fill="#D2B48C"/>
  
  <!-- Decorative elements -->
  <circle cx="20" cy="12" r="1" fill="#8B4513"/>
  <path d="M12 18 Q16 16 20 18 Q24 16 28 18" stroke="#654321" stroke-width="1" fill="none"/>
</svg>